# xmcd
#
# Track frame offsets: 
#        182
#        16147
#        33755
#        50415
#        63297
#        82297
#        101915
#        118505
#        135015
#        147147
#        161665
#        175430
#
# Disc length: 2596 seconds
#
# Revision: 7
# Processed by: cddbd v1.5.2PL0 Copyright (c) Steve Scherf et al.
# Submitted via: ExactAudioCopy v1.0b3
#
DISCID=990a220c
DTITLE=Kenny Rogers - Greatest Hits
DYEAR=1981
DGENRE=Country
TTITLE0=The Gambler
TTITLE1=Lady
TTITLE2=Kenny Rogers - Kim Carnes - Don't Fall In Love With A Dreamer
TTITLE3=Kenny Rogers - The First Edition - Ruby, Don't Take Your Love T
TTITLE3=o Town
TTITLE4=She Believes In Me
TTITLE5=Coward Of The County
TTITLE6=Lucille
TTITLE7=You Decorated My Life
TTITLE8=Kenny Rogers - The First Edition - Reuben James
TTITLE9=Love The World Away
TTITLE10=Kenny Rogers - Dottie West - Everytime Two Fools Collide
TTITLE11=Long Arm Of The Law
EXTD=YEAR: 1980 ID3G: 2
EXTT0=
EXTT1=
EXTT2=
EXTT3=
EXTT4=
EXTT5=
EXTT6=
EXTT7=
EXTT8=
EXTT9=
EXTT10=
EXTT11=
PLAYORDER=
